<?xml version="1.0" standalone="no"?>
<!DOCTYPE svg PUBLIC "-//W3C//DTD SVG 20010904//EN"
 "http://www.w3.org/TR/2001/REC-SVG-20010904/DTD/svg10.dtd">
<svg version="1.0" xmlns="http://www.w3.org/2000/svg"
 width="2088.000000pt" height="2088.000000pt" viewBox="0 0 2088.000000 2088.000000"
 preserveAspectRatio="xMidYMid meet">
<g transform="translate(0.000000,2088.000000) scale(0.100000,-0.100000)"
fill="#0097ff" stroke="none" style="background-color: white;">
<path d="M10105 20843 c-1300 -43 -2564 -323 -3760 -833 -230 -98 -744 -350
-950 -466 -1478 -828 -2714 -1974 -3640 -3374 -953 -1442 -1536 -3119 -1680
-4835 -48 -582 -48 -1208 0 -1790 118 -1406 535 -2803 1207 -4045 1085 -2003
2789 -3595 4858 -4537 1863 -849 3956 -1125 6000 -792 915 150 1834 432 2677
822 1729 802 3213 2072 4280 3664 881 1313 1457 2835 1662 4388 98 739 117
1552 55 2285 -234 2762 -1563 5313 -3699 7100 -1956 1637 -4459 2498 -7010
2413z m489 -225 c3 -68 9 -283 12 -479 l6 -356 -113 -6 c-63 -4 -151 -7 -196
-7 l-81 0 -6 83 c-3 45 -8 263 -10 485 l-5 402 193 0 194 0 6 -122z m406 112
c30 0 60 -4 67 -8 9 -6 7 -117 -7 -481 -11 -261 -22 -476 -24 -479 -6 -5 -385
13 -389 19 -2 3 30 723 42 948 1 12 23 13 129 8 70 -4 152 -7 182 -7z m-880
-3 c0 -2 14 -217 30 -477 22 -346 27 -476 19 -481 -12 -7 -378 -24 -383 -18
-5 6 -56 952 -52 957 8 7 386 26 386 19z m1255 -28 c88 -6 163 -14 166 -18 7
-6 -55 -948 -62 -956 -5 -4 -382 25 -388 31 -4 3 55 834 65 916 5 44 7 47 32
43 15 -3 99 -10 187 -16z m-1662 -478 c26 -261 46 -475 44 -476 -4 -4 -389
-37 -391 -33 -7 8 -88 949 -83 954 8 9 371 42 378 35 3 -3 27 -219 52 -480z
m2161 419 c82 -11 151 -22 154 -25 7 -7 -100 -932 -109 -946 -5 -9 -375 33
-385 44 -4 4 97 839 111 925 6 31 8 32 43 27 20 -3 104 -14 186 -25z m-2719
-12 c5 -22 133 -871 138 -913 2 -19 -12 -22 -192 -47 -107 -15 -195 -27 -196
-25 -6 7 -138 948 -134 951 4 4 318 52 361 55 11 1 20 -8 23 -21z m3160 -52
c128 -24 171 -36 173 -48 3 -14 -157 -928 -163 -936 -1 -2 -89 14 -194 34
-121 23 -191 41 -191 49 0 6 38 217 85 468 47 251 85 459 85 462 0 9 31 5 205
-29z m-3631 -68 c23 -107 176 -860 176 -869 0 -7 -379 -83 -385 -77 -4 4 -185
920 -185 935 0 8 304 76 366 82 7 1 19 -31 28 -71z m4074 -34 c92 -20 171 -39
175 -43 6 -6 -179 -928 -190 -940 -3 -5 -374 76 -381 83 -3 4 177 858 194 919
7 23 9 23 202 -19z m-4549 -31 c49 -187 223 -894 220 -897 -2 -2 -89 -24 -192
-49 -128 -30 -190 -41 -192 -33 -9 26 -216 893 -218 910 -2 17 19 25 173 62
96 23 180 43 187 43 7 1 17 -16 22 -36z m5009 -80 c100 -26 182 -52 182 -58 0
-16 -228 -917 -233 -922 -8 -8 -377 92 -377 102 -1 18 235 925 240 925 3 0 87
-21 188 -47z m-5476 -20 c3 -10 60 -217 128 -460 68 -244 121 -445 118 -449
-7 -6 -370 -105 -374 -101 -5 5 -245 891 -247 912 -2 17 19 25 168 66 197 54
201 55 207 32z m5948 -122 c150 -50 175 -61 172 -77 -5 -24 -280 -895 -285
-900 -2 -2 -87 24 -189 59 l-186 62 142 441 c163 502 153 474 163 474 5 0 87
-26 183 -59z m-6272 -468 l150 -452 -117 -37 c-64 -20 -148 -47 -188 -60 l-72
-22 -111 341 c-61 188 -129 395 -150 459 l-38 118 181 59 c100 32 185 56 188
52 4 -3 74 -209 157 -458z m6700 315 c97 -36 162 -66 162 -74 0 -17 -310 -877
-321 -888 -6 -7 -369 120 -369 129 0 2 74 205 165 451 91 246 165 449 165 452
0 2 8 1 18 -3 9 -4 90 -34 180 -67z m-7143 -443 c98 -231 180 -429 182 -440 3
-17 -18 -29 -164 -87 -92 -37 -174 -69 -181 -70 -15 -3 -384 872 -373 884 13
14 346 146 353 140 3 -4 86 -196 183 -427z m7555 270 c96 -41 174 -79 173 -84
-5 -20 -357 -867 -363 -874 -9 -10 -350 133 -357 149 -4 11 361 884 370 884 1
0 81 -34 177 -75z m-7974 -446 c113 -232 206 -426 207 -432 2 -7 -314 -163
-345 -170 -7 -2 -418 845 -418 862 0 8 343 171 348 166 2 -2 96 -193 208 -426z
m8390 262 c93 -43 168 -84 167 -89 -2 -6 -91 -204 -199 -440 l-196 -430 -62
28 c-183 83 -297 140 -293 147 2 5 93 200 202 436 109 235 202 427 205 427 4
0 83 -36 176 -79z m-8860 -416 c102 -198 201 -390 220 -427 l34 -68 -170 -85
c-93 -47 -173 -85 -178 -85 -8 0 -446 850 -440 855 6 6 343 173 345 171 1 -1
86 -163 189 -361z m9267 208 c88 -49 161 -93 164 -99 3 -9 -46 -104 -299 -574
-84 -155 -14 -45 157 250 98 168 179 306 179 307 1 1 74 -40 162 -92 87 -52
163 -96 168 -98 11 -4 -464 -836 -478 -837 -4 0 -84 45 -177 100 -93 54 -243
140 -334 190 -91 51 -165 96 -165 102 0 12 451 838 458 838 3 0 77 -39 165
-87z m-9663 -474 c135 -221 246 -407 248 -414 3 -12 -314 -208 -329 -203 -14
5 -501 822 -492 826 4 1 78 45 163 97 85 52 157 94 160 95 3 0 115 -181 250
-401z m-400 -270 c144 -221 258 -405 253 -409 -27 -24 -315 -201 -322 -198
-12 4 -513 779 -515 796 -1 10 298 211 315 212 4 0 124 -181 269 -401z m10807
295 c84 -53 156 -100 158 -104 3 -5 -43 -87 -101 -182 -278 -450 -278 -452
-19 -94 96 133 175 233 182 231 30 -10 303 -220 299 -230 -2 -6 -70 -103 -151
-215 -274 -380 -274 -384 -5 -45 101 127 186 234 191 239 11 13 311 -234 301
-248 -21 -27 -128 -163 -235 -298 -65 -82 -116 -148 -113 -148 2 0 75 84 162
188 86 103 171 201 187 219 l29 31 142 -121 c77 -66 142 -124 144 -128 2 -5
-132 -170 -298 -369 -165 -198 -299 -360 -296 -360 2 0 147 154 322 343 175
188 321 342 325 342 8 0 272 -245 277 -257 3 -7 -635 -708 -645 -708 -7 0 -67
54 -196 177 -54 51 -100 93 -103 93 -2 0 -80 64 -172 143 -345 295 -641 519
-904 686 -82 51 -148 97 -148 102 0 7 244 402 477 772 13 20 26 37 30 37 4 0
76 -43 160 -96z m-5182 -112 c378 -82 681 -277 917 -591 75 -100 148 -243
1263 -2476 4249 -8514 4662 -9344 4688 -9427 56 -172 71 -268 71 -453 0 -138
-5 -190 -23 -275 -83 -389 -287 -723 -576 -941 -143 -109 -350 -213 -520 -263
-302 -88 -663 -71 -960 45 -298 116 -564 333 -735 598 -19 30 -274 527 -566
1105 l-532 1051 -3346 3 -3346 2 -524 -1047 c-314 -627 -548 -1084 -584 -1138
-115 -172 -262 -320 -419 -421 -140 -90 -348 -173 -549 -220 -106 -25 -139
-28 -299 -28 -209 -1 -293 12 -479 75 -214 72 -393 178 -563 331 -149 134
-238 254 -324 433 -175 365 -214 746 -113 1097 15 51 41 127 59 168 18 41
1332 2674 2920 5850 2053 4106 2907 5804 2954 5875 131 198 329 381 534 494
139 76 323 138 492 166 129 21 438 14 560 -13z m-6015 -437 c145 -203 267
-375 272 -382 6 -7 -42 -46 -152 -123 -135 -94 -164 -110 -174 -99 -22 24
-535 755 -538 767 -2 6 67 60 152 120 115 82 158 107 166 98 6 -6 130 -177
274 -381z m-390 -281 c160 -206 291 -379 293 -384 1 -4 -67 -60 -152 -124
-125 -95 -157 -115 -167 -104 -52 55 -574 752 -567 759 9 9 297 229 300 229 1
0 133 -169 293 -376z m-365 -291 c171 -196 311 -359 313 -363 2 -4 -57 -58
-130 -121 -73 -62 -140 -118 -149 -126 -15 -13 -50 25 -328 349 -171 200 -311
366 -311 369 0 8 281 249 290 249 3 0 145 -160 315 -357z m-17 -659 c-2 -5
-64 -69 -139 -142 l-136 -131 -339 346 -338 346 139 133 140 133 338 -337
c185 -185 336 -342 335 -348z m13655 389 l137 -138 -343 -343 -342 -343 -138
143 -138 143 343 337 c189 186 343 338 344 338 0 0 62 -62 137 -137z m-14323
-374 c192 -172 349 -316 348 -320 -2 -4 -61 -70 -132 -148 l-129 -142 -31 29
c-17 16 -173 156 -346 312 -173 156 -321 288 -328 295 -10 9 13 40 115 153 70
78 133 140 140 138 6 -3 170 -146 363 -317z m14645 35 c70 -80 126 -146 124
-148 -16 -12 -668 -593 -684 -608 -11 -11 133 100 320 247 187 148 356 281
376 296 l36 29 117 -149 c64 -82 116 -153 116 -157 -1 -8 -143 -123 -695 -562
l-54 -42 -120 154 c-66 85 -125 156 -130 158 -16 5 -261 291 -255 297 21 23
710 630 715 630 4 1 64 -64 134 -145z m-15012 -410 c199 -158 367 -292 374
-298 9 -8 -17 -47 -110 -161 -68 -82 -127 -149 -132 -147 -18 5 -746 594 -743
601 8 18 234 291 241 291 5 0 171 -129 370 -286z m-310 -400 c210 -158 383
-288 385 -289 4 -3 -231 -314 -238 -314 -11 -1 -760 575 -760 584 0 9 221 305
228 305 1 0 174 -129 385 -286z m16030 -62 c431 -600 892 -1478 1205 -2297
574 -1502 805 -3052 676 -4545 -50 -591 -165 -1221 -323 -1780 -65 -229 -174
-562 -186 -566 -8 -3 -667 214 -881 290 -7 3 11 69 47 178 128 383 246 898
314 1371 238 1650 57 3282 -529 4775 -269 686 -657 1403 -1078 1994 l-76 106
366 301 c201 165 369 298 374 295 4 -3 45 -57 91 -122z m-16325 -322 c221
-134 402 -247 402 -252 0 -13 -193 -327 -202 -327 -8 -1 -788 477 -806 493
-10 10 5 41 79 162 101 165 108 175 118 170 3 -1 187 -112 409 -246z m-253
-413 c220 -121 401 -221 403 -222 6 -5 -191 -346 -198 -343 -39 15 -830 465
-830 472 0 5 41 83 92 172 85 151 93 162 112 152 12 -6 201 -110 421 -231z
m-282 -438 c232 -116 423 -212 425 -214 5 -4 -172 -355 -178 -352 -3 1 -197
99 -431 217 l-427 214 86 173 c48 95 90 173 94 173 5 0 198 -95 431 -211z
m-238 -435 c231 -102 426 -188 433 -191 6 -3 12 -10 12 -15 0 -19 -153 -348
-161 -348 -5 0 -190 82 -411 181 -222 100 -417 187 -435 195 l-32 14 71 152
c38 84 74 163 79 176 5 12 12 22 17 22 4 0 197 -84 427 -186z m-18 -532 c145
-59 263 -110 263 -115 0 -11 -140 -341 -149 -350 -7 -7 -865 344 -883 361 -4
4 23 79 61 167 37 88 70 168 74 177 5 15 29 8 189 -58 101 -41 301 -123 445
-182z m-358 -347 c244 -85 446 -156 448 -159 5 -4 -117 -348 -128 -360 -5 -5
-200 59 -456 149 -246 87 -450 160 -451 161 -4 3 114 340 124 356 3 4 8 8 12
8 4 0 207 -70 451 -155z m-111 -429 c254 -89 465 -166 469 -169 3 -4 -228 -7
-515 -7 -287 0 -522 3 -522 8 0 8 10 42 64 215 21 64 38 117 39 117 1 0 210
-74 465 -164z m18394 -6392 c238 -81 435 -149 438 -151 8 -8 -109 -343 -190
-543 -43 -107 -119 -276 -168 -375 -62 -125 -86 -184 -80 -192 11 -14 -64
-163 -212 -423 -609 -1069 -1421 -2041 -2370 -2834 -1600 -1338 -3604 -2142
-5844 -2346 -408 -37 -499 -41 -969 -47 -595 -7 -908 9 -1406 73 -1670 213
-3221 884 -4556 1969 -496 404 -1029 931 -1456 1441 -614 734 -1158 1575
-1582 2444 -66 135 -125 249 -132 255 -14 12 -35 69 -35 97 0 30 36 4 51 -37
l13 -35 486 0 485 -1 95 -181 c563 -1079 1482 -2204 2473 -3029 1365 -1138
2945 -1817 4672 -2008 972 -108 2028 -61 3013 134 1504 298 2860 946 4037
1930 313 261 706 639 972 935 436 485 828 1015 1155 1560 164 274 253 441 239
449 -8 5 17 63 78 187 132 264 272 604 330 802 12 39 24 72 26 72 2 0 198 -66
437 -146z"/>
<path style="fill: white" d="M12610 20431 c0 -3 -13 -69 -30 -146 -16 -77 -30 -142 -30 -145 0 -7
257 24 264 31 9 9 47 192 42 204 -2 7 -22 15 -43 19 -21 3 -75 15 -120 25 -46
10 -83 16 -83 12z"/>
<path style="fill: white" d="M13036 20184 c-20 -81 -35 -148 -34 -149 7 -4 257 21 263 27 6 5 54
182 55 199 0 5 -224 69 -242 69 -3 0 -22 -66 -42 -146z"/>
<path style="fill: white" d="M13500 20069 c-23 -73 -44 -138 -47 -146 -4 -10 18 -13 110 -13 64 0
126 4 139 9 20 7 30 27 52 101 16 51 25 95 20 99 -5 5 -54 23 -109 41 -55 18
-105 35 -112 37 -7 3 -27 -43 -53 -128z"/>
<path style="fill: white" d="M13955 20038 c-2 -7 -25 -69 -50 -137 -25 -69 -45 -128 -45 -133 0
-4 60 -8 134 -8 l134 0 37 101 c20 55 35 102 33 103 -6 5 -224 86 -231 86 -4
0 -10 -6 -12 -12z"/>
<path style="fill: white" d="M14326 19745 c-31 -74 -56 -139 -56 -145 0 -6 26 -10 58 -10 33 0 92
-3 133 -6 l74 -6 42 103 c24 56 42 103 40 104 -10 7 -223 95 -228 95 -4 0 -32
-61 -63 -135z"/>
<path style="fill: white" d="M14734 19568 c-70 -155 -77 -141 77 -153 52 -3 102 -9 111 -11 13 -4
26 15 57 81 22 48 42 93 43 101 2 9 -35 32 -102 64 -58 27 -110 50 -115 50 -6
0 -38 -60 -71 -132z"/>
<path style="fill: white" d="M15157 19403 c-30 -54 -110 -199 -177 -323 -67 -124 -133 -244 -146
-266 l-23 -41 107 -59 c58 -33 111 -60 117 -62 5 -1 98 162 206 363 l197 364
-108 61 c-60 33 -111 60 -114 60 -3 0 -29 -44 -59 -97z"/>
<path style="fill: white" d="M15562 19267 c-97 -160 -403 -689 -400 -691 19 -13 216 -126 220
-126 7 0 405 688 410 708 2 7 -43 40 -104 77 l-107 63 -19 -31z"/>
<path style="fill: white" d="M15739 18718 c-118 -188 -214 -348 -214 -355 0 -16 206 -147 215
-136 4 4 103 163 219 352 172 278 210 346 199 356 -16 15 -193 125 -200 125
-3 0 -102 -154 -219 -342z"/>
<path style="fill: white" d="M16086 18493 c-130 -178 -240 -330 -242 -337 -3 -8 38 -44 97 -87 55
-41 102 -74 104 -74 3 0 463 637 478 662 5 8 -24 36 -85 81 -51 38 -98 71
-104 75 -6 3 -114 -137 -248 -320z"/>
<path style="fill: white" d="M16405 18240 c-153 -190 -254 -324 -249 -330 25 -24 187 -150 194
-150 5 0 195 236 502 625 17 22 16 23 -73 94 -49 39 -95 74 -103 77 -8 3 -107
-112 -271 -316z"/>
<path style="fill: white" d="M16716 17985 c-147 -174 -266 -317 -264 -319 3 -2 139 -118 174 -149
l22 -19 266 318 c146 175 266 321 265 324 0 6 -176 154 -188 158 -4 1 -128
-140 -275 -313z"/>
<path style="fill: white" d="M17040 17712 l-284 -305 95 -88 c52 -49 96 -88 99 -88 5 1 553 598
558 609 1 3 -40 45 -91 92 l-93 86 -284 -306z"/>
<path d="M9692 12195 l-902 -1805 1810 0 1810 0 -902 1805 c-497 993 -905
1805 -908 1805 -3 0 -411 -812 -908 -1805z"/>
<path style="fill: white" d="M17348 17416 l-296 -293 93 -93 94 -94 296 295 296 294 -93 92 -93
92 -297 -293z"/>
<path style="fill: white" d="M17660 17110 c-168 -148 -306 -274 -308 -280 -4 -11 152 -191 165
-190 4 0 146 123 314 273 l307 272 -38 45 c-21 25 -60 68 -87 97 l-48 52 -305
-269z"/>
<path style="fill: white" d="M17938 16788 l-327 -259 81 -103 81 -104 324 259 c178 143 323 262
323 265 0 2 -35 49 -77 103 l-78 98 -327 -259z"/>
<path style="fill: white" d="M20150 9155 c-195 -18 -368 -34 -384 -36 l-29 -4 -38 -225 c-72 -425
-185 -891 -294 -1209 -14 -41 -22 -78 -18 -81 5 -4 172 -62 373 -130 201 -68
370 -125 377 -127 20 -8 149 409 242 783 76 305 159 732 196 1012 l7 52 -39
-1 c-21 -1 -198 -16 -393 -34z"/>
</g>
</svg>
